<svg id="Layer_1" enable-background="new 0 0 510 510" height="512" viewBox="0 0 510 510" width="512" xmlns="http://www.w3.org/2000/svg"><g><g><path d="m510 255c0 34.204-6.734 66.835-18.949 96.64-38.08 92.914-129.423 132.736-236.051 132.736-140.833 0-255-88.543-255-229.376s114.167-255 255-255 255 114.167 255 255z" fill="#2d56a1"/></g><path d="m485.739 347.764c6.168-15.307 1.003-32.726-11.5-42.516-9.893-7.747-15.419-19.817-15.419-32.383v-147.121c0-15.002-12.161-27.163-27.163-27.163h-241.055v.06c-15.808-.993-28.891 11.557-28.891 27.103v25.261h-20.521c-5.335 0-8.938 5.447-6.851 10.357l2.712 6.379c.791 1.861.791 3.964 0 5.824l-7.114 16.736h31.775v82.872c0 13.459-10.91 24.369-24.369 24.369-8.319 0-16.051-4.254-20.547-11.254-10.177-15.842-18.403-32.504-24.706-49.664-18.147-49.403-91.373-37.675-92.066 14.951-.019 1.444-.026 2.891-.021 4.341.49 139.342 117.013 254.806 256.354 254.08 106.046-.552 196.76-65.844 234.678-158.363.655-1.597-1.238-3.032-2.6-1.971l-.111.086c-1.371 1.067-3.234-.373-2.585-1.984z" fill="#1a396b"/><g><g><path d="m445.884 299.758v-151.195c0-15.002-12.161-27.163-27.163-27.163h-179.02v178.359h206.183z" fill="#ff5551"/><path d="m258.042 256.501v-114.449c0-11.406-9.246-20.652-20.652-20.652h-59.724v268.218h268.218v-94.773h-149.498c-21.177 0-38.344-17.167-38.344-38.344z" fill="#e20a62"/><path d="m203.102 389.617v-241.054c0-15.002-12.161-27.163-27.163-27.163s-27.163 12.161-27.163 27.163v241.055h54.326z" fill="#f88"/><path d="m195.087 389.617v-234.98c0-10.575-8.573-19.148-19.148-19.148-10.575 0-19.148 8.573-19.148 19.148v234.98z" fill="#fff"/></g><path d="m117.001 213.12h59.683v-39.296h-59.683l8.352 19.648z" fill="#ffc305"/><g><g><path d="m430.036 447.408c2.733-5.128 4.287-10.978 4.287-17.194 0-20.223-16.394-36.617-36.617-36.617h-275.854v53.812h308.184z" fill="#2896ff"/><path d="m432.337 418.323c-4.938 14.384-18.573 24.727-34.632 24.727h-226.822c-6.97 0-12.439-5.732-12.414-12.701 0-.045 0-.09 0-.135 0-20.223-16.394-36.617-36.618-36.617h-67.083v73.235h26.995 40.09 275.853c20.223 0 36.617-16.394 36.617-36.617-.001-4.165-.705-8.162-1.986-11.892z" fill="#2d56a1"/><path d="m32.457 466.831h67.085c20.223 0 36.618-16.394 36.618-36.618 0-20.223-16.394-36.618-36.618-36.618h-67.085z" fill="#6ee1ff"/><path d="m32.457 456.027h62.264c14.256 0 25.813-11.557 25.813-25.813 0-14.256-11.557-25.813-25.813-25.813h-62.264z" fill="#fff"/></g><path d="m167.908 371.551h304.477c1.94-4.467 3.022-9.392 3.022-14.573 0-20.223-16.394-36.618-36.617-36.618h-270.885c0 .018.003.035.003.052z" fill="#ff8500"/><path d="m475.407 356.835c-.018-4.597-5.812-6.555-8.802-3.062-6.713 7.843-16.681 12.815-27.816 12.815h-228.763c-5.219 0-9.311-4.291-9.297-9.51 0-.033 0-.066 0-.1 0-20.223-16.394-36.617-36.618-36.617h-67.084v73.235h20.554 46.531 274.678c20.223 0 36.618-16.394 36.618-36.618-.001-.047-.001-.095-.001-.143z" fill="#fa690f"/><path d="m73.542 393.596h67.085c20.223 0 36.618-16.394 36.618-36.617 0-20.223-16.394-36.618-36.618-36.618h-67.085z" fill="#ffc305"/><path d="m73.542 382.792h62.264c14.256 0 25.813-11.557 25.813-25.813 0-14.256-11.557-25.813-25.813-25.813h-62.264z" fill="#fff"/></g></g></g></svg>