<svg id="Layer_1" enable-background="new 0 0 507.826 507.826" height="512" viewBox="0 0 507.826 507.826" width="512" xmlns="http://www.w3.org/2000/svg"><g><g><path d="m504.122 250.209c0 38.248-8.582 74.492-23.926 106.911-40.091 84.706-127.326 123.809-227.265 123.809-138.187 0-233.368-92.16-233.368-230.347 0-74.111 16.361-141.069 67.558-186.884 44.266-39.612 102.716-63.698 166.792-63.698 138.187 0 250.209 112.022 250.209 250.209z" fill="#f8e000"/></g><path d="m480.192 342.528v-168.176c0-19.944-7.539-39.15-21.106-53.768-14.908-16.064-35.814-25.218-57.73-25.273-69.534-.176-224.862-.355-278.948 1.353-9.442.298-16.303-8.86-13.405-17.851.077-.239.155-.479.232-.718 4.315-13.263-11.715-23.692-22.109-14.392-50.637 45.311-82.713 110.937-83.411 184.071-1.33 139.551 110.56 252.6 250.117 252.644 93.881.029 175.68-51.655 218.511-128.118 3.9-7.201 7.849-15.826 7.849-29.772z" fill="#ffc305"/><g><path d="m216.608 366.936h72.648v113.993h-72.648z" fill="#1a396b"/><path d="m422.485 395.114h-339.106c-10.198 0-18.465-8.267-18.465-18.465v-224.356c0-10.198 8.267-18.465 18.465-18.465h339.106c10.198 0 18.465 8.267 18.465 18.465v224.356c0 10.198-8.267 18.465-18.465 18.465z" fill="#6ee1ff"/><path d="m411.57 338.153v-128.05c0-6.052-4.906-10.958-10.958-10.958h-61.666c-6.052 0-10.959 4.906-10.959 10.959v142.864h-150.887c-2.87 0-5.196-2.326-5.196-5.196 0-2.87 2.326-5.196 5.196-5.196h118.032c7.158 0 12.961-5.803 12.961-12.961v-117.53c0-7.158-5.803-12.961-12.961-12.961h-123.228v-65.296h-90.171c-9.289 0-16.819 7.53-16.819 16.819v227.648c0 9.289 7.53 16.819 16.819 16.819h341.993c9.513 0 17.225-7.712 17.225-17.225v-24.922h-14.565c-8.183 0-14.816-6.633-14.816-14.814z" fill="#2896ff"/><path d="m156.393 133.828h284.557v43.548h-284.557z" fill="#fff"/><path d="m64.913 133.828h94.735v43.548h-94.735z" fill="#6ee1ff"/><g><path d="m411.631 118.685h-316.86v30.286h316.86c7.816 0 14.176 6.359 14.176 14.176v202.649c0 7.817-6.359 14.176-14.176 14.176h-229.096v30.286h229.096c24.516 0 44.462-19.945 44.462-44.462v-202.65c0-24.516-19.946-44.461-44.462-44.461z" fill="#2d56a1"/></g><g><path d="m192.825 379.971h-98.593c-7.829 0-14.175-6.347-14.175-14.175v-202.65c0-7.829 6.347-14.176 14.176-14.176h17.902c8.363 0 15.143-6.78 15.143-15.143 0-8.363-6.78-15.143-15.143-15.143h-17.903c-24.555 0-44.461 19.906-44.461 44.461v202.649c0 24.556 19.906 44.462 44.462 44.462h98.593c8.363 0 15.143-6.78 15.143-15.143-.001-8.362-6.78-15.142-15.144-15.142z" fill="#1a396b"/></g><path d="m207.968 454.031h115.567v46.387h-115.567z" fill="#2d56a1"/><path d="m216.608 475.903v-21.872h-34.28v53.794h141.207v-13.544h-88.549c-10.15.001-18.378-8.227-18.378-18.378z" fill="#1a396b"/><path d="m302.631 306.1v-102.661c0-7.158-5.803-12.961-12.961-12.961h-150.083v115.622z" fill="#ff8500"/><path d="m231.82 285.944c8.73-4.385 8.73-16.847 0-21.232l-54.96-27.607c-7.9-3.968-17.213 1.775-17.213 10.616v46.075c0 4.755-3.854 8.609-8.609 8.609-4.755 0-8.609-3.854-8.609-8.609v-103.318h-33.007c-7.158 0-12.961 5.803-12.961 12.961v117.53c0 7.158 5.803 12.961 12.961 12.961h180.248c7.158 0 12.961-5.803 12.961-12.961v-18.563h-66.909c-9.164-.001-12.091-12.349-3.902-16.462z" fill="#fa690f"/><path d="m159.648 289.81v-55.213c0-8.841 9.312-14.584 17.213-10.616l54.96 27.607c8.73 4.385 8.73 16.847 0 21.232l-54.96 27.607c-7.901 3.968-17.213-1.776-17.213-10.617z" fill="#f8e000"/><path d="m406.109 336.911v-135.453c0-6.052-4.906-10.959-10.959-10.959h-45.489v146.411h56.448z" fill="#82cd64"/><path d="m363.584 333.723c-6.052 0-10.959-4.906-10.959-10.958v-132.266h-19.141c-6.052 0-10.959 4.906-10.959 10.959v149.712c0 6.052 4.906 10.959 10.959 10.959h61.665c6.052 0 10.959-4.906 10.959-10.959v-17.446h-42.524z" fill="#20b7a1"/></g></g></svg>