<?xml version="1.0" encoding="iso-8859-1"?>
<!-- Generator: Adobe Illustrator 19.0.0, SVG Export Plug-In . SVG Version: 6.00 Build 0)  -->
<svg version="1.1" id="Capa_1" xmlns="http://www.w3.org/2000/svg" xmlns:xlink="http://www.w3.org/1999/xlink" x="0px" y="0px"
	 viewBox="0 0 512 512" style="enable-background:new 0 0 512 512;" xml:space="preserve">
<path style="fill:#FFDA68;" d="M496.639,512H15.361C6.878,512,0,505.122,0,496.639V376.32c0-8.483,6.878-15.361,15.361-15.361
	h104.958V255.999c0-8.483,6.878-15.361,15.361-15.361h104.958V135.68c0-8.483,6.878-15.361,15.361-15.361h104.958V15.361
	C360.957,6.878,367.835,0,376.319,0h120.319c8.483,0,15.361,6.878,15.361,15.361v481.278C512,505.122,505.122,512,496.639,512z"/>
<path style="fill:#FFA918;" d="M496.639,0H376.32c-8.483,0-15.361,6.878-15.361,15.361v104.958H255.999
	c-8.483,0-15.361,6.878-15.361,15.361V512h256.01c8.472,0,15.345-6.872,15.352-15.344c0-0.007,0-0.013,0-0.017V15.361
	C512,6.878,505.122,0,496.639,0z"/>
<g>
</g>
<g>
</g>
<g>
</g>
<g>
</g>
<g>
</g>
<g>
</g>
<g>
</g>
<g>
</g>
<g>
</g>
<g>
</g>
<g>
</g>
<g>
</g>
<g>
</g>
<g>
</g>
<g>
</g>
</svg>
