<?xml version="1.0" encoding="utf-8"?>
<!-- Generator: Adobe Illustrator 24.2.1, SVG Export Plug-In . SVG Version: 6.00 Build 0)  -->
<svg version="1.1" id="Layer_1" xmlns="http://www.w3.org/2000/svg" xmlns:xlink="http://www.w3.org/1999/xlink" x="0px" y="0px"
	 viewBox="0 0 58.5 50" style="enable-background:new 0 0 58.5 50;" xml:space="preserve">
<style type="text/css">
	.st0{fill:#1E9CD8;}
	.st1{fill:#FFFFFF;}
	.st2{fill:#0AAC4B;}
	.st3{fill:#046B39;}
	.st4{fill:none;stroke:#0AAC4B;stroke-linecap:round;stroke-linejoin:round;}
	.st5{fill:#11AB4B;}
</style>
<g>
	<path class="st0" d="M6.6,45.6V6.5c0-1.1,0.9-2.1,2-2.1c0,0,0,0,0,0h41.2c1.1,0,2.1,0.9,2.1,2.1c0,0,0,0,0,0v39.1H6.6"/>
	<rect x="8.6" y="8.5" class="st1" width="41.2" height="28.8"/>
	<path class="st2" d="M6.6,41.5H0.4v4.1h6.2L6.6,41.5 M58.1,41.5h-6.2v4.1h6.2V41.5"/>
	<polyline class="st3" points="51.9,41.5 6.6,41.5 6.6,45.6 51.9,45.6 51.9,41.5 	"/>
	<rect x="26" y="20.7" class="st2" width="3.5" height="16.3"/>
	<rect x="19.3" y="28.9" class="st0" width="3.5" height="8.1"/>
	<rect x="12.6" y="31.6" class="st2" width="3.5" height="5.4"/>
	<line class="st4" x1="11.1" y1="23.8" x2="28.8" y2="14.6"/>
	<polyline class="st4" points="25,12.3 29.6,13.8 28.1,18.4 	"/>
	<path class="st5" d="M46.5,34.1c0-2.3-1.9-4.1-4.1-4.1l0,0c-1.4,0-2.7,0.7-3.5,1.9c-0.2,0.4-0.4,0.7-0.5,1.2l0,0
		c0,0-0.1,0.2-0.1,0.4c0,0.2-0.1,0.4-0.1,0.6v0.5c0,1.1,0,2.4,0,2.4h8.3C46.5,37,46.5,34.1,46.5,34.1z M39.2,32.4l0.1,0.2L39.2,32.4
		z M39.4,32.9c0,0.1,0,0.2,0.1,0.3C39.4,33.1,39.4,33,39.4,32.9L39.4,32.9z M39.5,33.5c0,0.1,0,0.2,0,0.3
		C39.5,33.7,39.5,33.6,39.5,33.5L39.5,33.5z"/>
	<path class="st5" d="M38.2,25.8c0,0.2,0,0.3,0,0.5c0,0.1,0,0.2,0,0.2l0.1,0.2c0.1,0.3,0.2,0.6,0.3,0.9l0.1,0.2c0,0,0,0.1,0.1,0.1
		c1.2,1.9,3.8,2.5,5.7,1.3c1.9-1.2,2.5-3.8,1.3-5.7s-3.8-2.5-5.7-1.3c-0.5,0.3-0.9,0.7-1.2,1.2l0,0l0,0l0,0.1c0,0.1-0.1,0.1-0.1,0.2
		c-0.1,0.1-0.1,0.2-0.1,0.3l-0.1,0.2c-0.1,0.1-0.1,0.3-0.2,0.4l0,0C38.3,25,38.2,25.4,38.2,25.8z"/>
</g>
</svg>
