<?xml version="1.0" encoding="utf-8"?>
<!-- Generator: Adobe Illustrator 24.1.3, SVG Export Plug-In . SVG Version: 6.00 Build 0)  -->
<svg version="1.1" id="Layer_1" xmlns="http://www.w3.org/2000/svg" xmlns:xlink="http://www.w3.org/1999/xlink" x="0px" y="0px"
	 viewBox="0 0 100 70" style="enable-background:new 0 0 100 70;" xml:space="preserve">
<style type="text/css">
	.st0{fill:#009DE0;}
	.st1{fill:#FFFFFF;}
	.st2{fill:#00AC41;}
	.st3{fill:#006A39;}
</style>
<g>
	<g>
		<path class="st0" d="M19.2,62.9v-53c0-1.6,1.2-2.8,2.8-2.8h55.9c1.6,0,2.8,1.2,2.8,2.8V63L19.2,62.9"/>
		<rect x="22.1" y="12.7" class="st1" width="55.9" height="39.1"/>
		<path class="st2" d="M19.2,57.3h-8.3v5.6h8.3V57.3 M89.1,57.3h-8.3v5.6h8.3V57.3"/>
		<polyline class="st3" points="80.8,57.3 19.2,57.3 19.2,62.9 80.8,62.9 80.8,57.3 		"/>
	</g>
	<g>
		<path class="st2" d="M29.4,30.8L42,25.9v3.2l-9.4,3.2l9.4,3.2v3.2l-12.6-4.9C29.4,33.9,29.4,30.8,29.4,30.8z"/>
		<path class="st2" d="M53.2,22.6h3.3l-9.7,22.1h-3.2L53.2,22.6z"/>
		<path class="st2" d="M70.6,34L58,38.9v-3.2l9.3-3.2L58,29.3V26l12.6,4.9V34z"/>
	</g>
</g>
</svg>
