<svg id="Layer_1" data-name="Layer 1" xmlns="http://www.w3.org/2000/svg" viewBox="0 0 65 55"><defs><style>.cls-1{fill:#2c3e50;}.cls-2,.cls-3,.cls-4{fill:none;stroke:#2c3e50;stroke-miterlimit:10;}.cls-2{stroke-linecap:round;}.cls-2,.cls-3{stroke-width:1.25px;}.cls-4{stroke-width:1.5px;}</style></defs><title>i</title><polygon class="cls-1" points="56.16 28.03 48.8 28.03 44.59 32.23 48.8 36.44 56.16 36.44 51.96 32.23 56.16 28.03"/><line class="cls-2" x1="25.66" y1="32.23" x2="40.39" y2="17.51"/><line class="cls-2" x1="25.66" y1="32.23" x2="44.59" y2="32.23"/><path class="cls-3" d="M31.13,35.39a6.32,6.32,0,1,1-3.37-9.11"/><polygon class="cls-1" points="46.7 5.94 40.39 12.25 40.39 17.51 45.65 17.51 51.96 11.2 46.7 11.2 46.7 5.94"/><path class="cls-3" d="M37,34.34A11.58,11.58,0,1,1,32,22.54"/><path class="cls-4" d="M35.36,25.92A11.5,11.5,0,0,1,37,30.13"/><path class="cls-3" d="M42.36,34.34a16.81,16.81,0,1,1-6.18-15.25"/><path class="cls-4" d="M38.8,21.72a16.65,16.65,0,0,1,3.56,8.41"/></svg>