<svg id="Layer_1" data-name="Layer 1" xmlns="http://www.w3.org/2000/svg" viewBox="0 0 65 55"><defs><style>.cls-1{fill:#2c3e50;}</style></defs><title>speechx-icon</title><path class="cls-1" d="M40.17,38.74l-9.11-2.53V34L33,34.6l1,0a4.15,4.15,0,0,0,4.15-4.15,2.74,2.74,0,0,1,.29-1.22l.86-1.72A1.77,1.77,0,0,0,41,25.78a1.8,1.8,0,0,0-.35-1.07l-.27-.35a7.57,7.57,0,0,1-1.5-4.52,4.27,4.27,0,0,0-.54-2.08l.23-.24A8.2,8.2,0,0,0,41,11.66a8.34,8.34,0,0,0-1.66-5l-.89-1.18L38,5.62A46.91,46.91,0,0,1,26.56,7h-.39a11.39,11.39,0,0,0-9.93,17l2.47,3.67a14.09,14.09,0,0,1,1.7,3.46,14.24,14.24,0,0,1,.74,4.53v.56L12,38.74A5,5,0,0,0,8.4,43.52v6H43.8v-6A5,5,0,0,0,40.17,38.74Zm-9.7-1.22.52.14-1,4.2-2.66-2.22Zm8.75-12.31.26.35a.36.36,0,0,1,.07.22.35.35,0,0,1-.35.35h-.79l-1.25,2.5a4.1,4.1,0,0,0-.44,1.85A2.73,2.73,0,0,1,34,33.21h-.7l-7-2.09-.41,1.35,3.74,1.13v2.77L26.1,38.73l-3.54-2.36v-.72a15,15,0,0,0-.14-2l.26-.26a9.19,9.19,0,0,0,2.72-6.54v-.71H24a1.42,1.42,0,1,1,0-2.83H25.4V21.67a4.74,4.74,0,0,1,4.74-4.74h4.37a2.9,2.9,0,0,1,2.92,2.91A9,9,0,0,0,39.22,25.21ZM21.73,37.52l3.19,2.12-2.65,2.22-1.05-4.2ZM19.89,26.87l-2.44-3.62A10,10,0,0,1,26.17,8.43h.39A48.83,48.83,0,0,0,37.85,7.11l.33.43a6.91,6.91,0,0,1,1.37,4.12,6.81,6.81,0,0,1-2,4.86l-.12.12a4.28,4.28,0,0,0-2.91-1.13H30.14a6.13,6.13,0,0,0-4.81,2.31A6.2,6.2,0,0,0,24,21.67v.21a2.84,2.84,0,0,0,0,5.67,7.75,7.75,0,0,1-1.84,4.36c-.1-.41-.22-.83-.35-1.23A15.87,15.87,0,0,0,19.89,26.87Zm22.5,21.21H9.82V43.52a3.56,3.56,0,0,1,2.59-3.41L19.86,38l1.58,6.35L26.1,40.5l4.66,3.89L32.35,38l7.44,2.07a3.54,3.54,0,0,1,2.6,3.41Z"/><path class="cls-1" d="M52.29,16.12,50.8,17.61a12.61,12.61,0,0,1,0,17.83l1.49,1.49a14.71,14.71,0,0,0,0-20.81Z"/><path class="cls-1" d="M49.32,19.1l-1.49,1.48a8.41,8.41,0,0,1,0,11.89L49.32,34a10.51,10.51,0,0,0,0-14.85Z"/><path class="cls-1" d="M46.34,22.07l-1.48,1.48a4.21,4.21,0,0,1,0,5.95L46.34,31a6.29,6.29,0,0,0,0-8.91Z"/></svg>